<svg width="21" height="21" viewBox="0 0 21 21" fill="none" xmlns="http://www.w3.org/2000/svg">
<g clip-path="url(#clip0_2678_1496)">
<path d="M10.5 0C4.725 0 0 4.725 0 10.5C0 16.275 4.725 21 10.5 21C16.275 21 21 16.275 21 10.5C21 4.725 16.275 0 10.5 0ZM7.6125 15.75H5.44688V8.72813H7.6125V15.75ZM6.49687 7.80937C5.84062 7.80937 5.25 7.21875 5.25 6.49687C5.25 5.84062 5.84062 5.25 6.49687 5.25C7.21875 5.25 7.74375 5.84062 7.74375 6.49687C7.74375 7.21875 7.21875 7.80937 6.49687 7.80937ZM15.75 15.75H13.5844V12.3375C13.5844 11.55 13.5844 10.5 12.4688 10.5C11.3531 10.5 11.1562 11.3531 11.1562 12.2719V15.75H8.99062V8.72813H11.0906V9.7125C11.3531 9.1875 12.075 8.59688 13.125 8.59688C15.3562 8.59688 15.75 10.0406 15.75 11.9438V15.75Z" fill="#63666A"/>
</g>
<defs>
<clipPath id="clip0_2678_1496">
<rect width="21" height="21" fill="white"/>
</clipPath>
</defs>
</svg>
