<svg width="159" height="156" viewBox="0 0 159 156" fill="none" xmlns="http://www.w3.org/2000/svg">
<path d="M113.77 92.347H82.4137H51.2584H20.9648" stroke="#63666A" stroke-width="3" stroke-linecap="round" stroke-linejoin="round"/>
<path d="M136.368 123.502H136.239H109.383H109.326H82.4127H55.4994H55.4277H28.457" stroke="#63666A" stroke-width="3" stroke-linecap="round" stroke-linejoin="round"/>
<path d="M28.9414 61.1917H55.4288H55.5005H82.4139H94.2154" stroke="#63666A" stroke-width="3" stroke-linecap="round" stroke-linejoin="round"/>
<path d="M82.4121 30.0364V61.1917V92.347V123.502V154.414" stroke="#63666A" stroke-width="3" stroke-linecap="round" stroke-linejoin="round"/>
<path d="M144.509 85.6141C144.736 87.7831 144.853 89.9916 144.853 92.218C144.853 126.612 116.965 154.5 82.571 154.5C48.1769 154.5 20.2891 126.612 20.2891 92.218C20.2891 57.824 48.1769 29.9361 82.571 29.9361C86.4222 29.9361 90.1962 30.2838 93.8589 30.9564" stroke="#63666A" stroke-width="3" stroke-linecap="round" stroke-linejoin="round"/>
<path d="M113.768 92.7587C113.768 127.153 99.8101 154.5 82.5844 154.5C65.3587 154.5 51.4004 126.612 51.4004 92.218C51.4004 57.824 65.3443 29.9361 82.57 29.9361" stroke="#63666A" stroke-width="3" stroke-linecap="round" stroke-linejoin="round"/>
<path d="M9.86648 117.208V48.6412L2.38672 58.7439" stroke="#009CDE" stroke-width="3" stroke-linecap="round" stroke-linejoin="round"/>
<path d="M9.86523 48.7364L17.5766 58.6092" stroke="#009CDE" stroke-width="3" stroke-linecap="round" stroke-linejoin="round"/>
<path d="M142.168 64.8753C142.707 60.3701 144.983 56.1891 146.575 53.7336C147.333 52.5646 148.219 51.4887 149.186 50.4856C154.313 45.1676 157.422 37.8903 157.278 29.8873C157 14.3597 144.311 1.72171 128.782 1.50294C112.62 1.27525 99.4473 14.3082 99.4473 30.4178C99.4473 38.2937 102.596 45.4342 107.703 50.6493C108.659 51.6257 109.534 52.6775 110.27 53.8289C111.878 56.3445 114.237 60.7709 114.643 65.6004C114.728 66.6087 115.448 67.4498 116.429 67.6999L140.781 73.9121C142.288 74.2966 143.218 75.8079 142.882 77.3266L142.524 78.9456C142.172 80.5383 140.58 81.5312 138.995 81.1473L120.07 76.5648C118.511 76.1872 116.946 77.1655 116.602 78.7327L116.221 80.4696C115.942 81.7432 116.724 83.0084 117.988 83.3281L135.962 87.8742C137.081 88.1571 137.77 89.2794 137.518 90.4053L137.109 92.2292C136.806 93.5811 135.448 94.4176 134.104 94.0802L121.765 90.982" stroke="#009CDE" stroke-width="3" stroke-linecap="round" stroke-linejoin="round"/>
<path d="M127.849 17.041L121.754 33.0864H134.271L128.996 49.1432" stroke="#3F9C35" stroke-width="3" stroke-linecap="round" stroke-linejoin="round"/>
</svg>
