<svg width="141" height="156" viewBox="0 0 141 156" fill="none" xmlns="http://www.w3.org/2000/svg">
<path d="M100.016 154.5H138.635V60.9203H100.016L100.016 154.5Z" stroke="#63666A" stroke-width="3" stroke-linecap="round" stroke-linejoin="round"/>
<path d="M50.8618 154.5H89.4805L89.4805 91.1754H50.8618L50.8618 154.5Z" stroke="#63666A" stroke-width="3" stroke-linecap="round" stroke-linejoin="round"/>
<path d="M1.69776 154.5H40.3164L40.3164 122.834H1.69776L1.69776 154.5Z" stroke="#63666A" stroke-width="3" stroke-linecap="round" stroke-linejoin="round"/>
<path d="M103.842 43.4794H133.295" stroke="#3F9C35" stroke-width="3" stroke-linecap="round" stroke-linejoin="round"/>
<path d="M133.302 5.01311C130.72 3.39331 127.553 2.25464 124.538 1.74945C116.583 0.442385 108.155 4.2834 108.195 12.9999V43.4874" stroke="#3F9C35" stroke-width="3" stroke-linecap="round" stroke-linejoin="round"/>
<path d="M103.842 22.2295L125.926 22.2215" stroke="#3F9C35" stroke-width="3" stroke-linecap="round" stroke-linejoin="round"/>
<path d="M3.41992 93.6692C38.2136 87.9518 72.0049 65.0661 78.2596 33.1351L63.7776 42.9983" stroke="#009CDE" stroke-width="3" stroke-linecap="round" stroke-linejoin="round"/>
<path d="M84.5708 48.9803L78.252 33.1351" stroke="#009CDE" stroke-width="3" stroke-linecap="round" stroke-linejoin="round"/>
</svg>
