<svg width="157" height="156" viewBox="0 0 157 156" fill="none" xmlns="http://www.w3.org/2000/svg">
<path d="M34.084 64.4332H122.916" stroke="#63666A" stroke-width="3" stroke-linecap="round" stroke-linejoin="round"/>
<path d="M115.518 143.398V137.226C115.518 134.497 117.727 132.288 120.455 132.288H147.597C150.326 132.288 152.535 134.497 152.535 137.226V143.398" stroke="#009CDE" stroke-width="3" stroke-linecap="round" stroke-linejoin="round"/>
<path d="M145.128 45.9243V64.4331H11.8711V45.9243" stroke="#63666A" stroke-width="3" stroke-linecap="round" stroke-linejoin="round"/>
<path d="M4.47266 64.4332H41.4902V67.8848C41.4902 72.1079 38.063 75.5433 33.8317 75.5433H12.1312C7.90803 75.5433 4.47266 72.1161 4.47266 67.8848V64.4332Z" stroke="#009CDE" stroke-width="3" stroke-linecap="round" stroke-linejoin="round"/>
<path d="M4.47266 143.398V137.226C4.47266 134.497 6.68169 132.288 9.4105 132.288H36.5524C39.2812 132.288 41.4902 134.497 41.4902 137.226V143.398" stroke="#009CDE" stroke-width="3" stroke-linecap="round" stroke-linejoin="round"/>
<path d="M34.0833 75.5352H11.8711V132.296H34.0833V75.5352Z" stroke="#009CDE" stroke-width="3" stroke-linecap="round" stroke-linejoin="round"/>
<path d="M115.518 64.4332H152.535V67.8848C152.535 72.1079 149.108 75.5433 144.877 75.5433H123.176C118.953 75.5433 115.518 72.1161 115.518 67.8848V64.4332Z" stroke="#009CDE" stroke-width="3" stroke-linecap="round" stroke-linejoin="round"/>
<path d="M145.128 75.5352H122.916V132.296H145.128V75.5352Z" stroke="#009CDE" stroke-width="3" stroke-linecap="round" stroke-linejoin="round"/>
<path d="M43.9512 45.9243H2.00391V36.0486L78.4998 1.5L82.8448 3.46539L114.202 17.6211L154.996 36.0486V45.9243H110.58" stroke="#63666A" stroke-width="3" stroke-linecap="round" stroke-linejoin="round"/>
<path d="M82.8448 3.46539L78.4998 1.5L2.00391 36.0486V45.9243H154.996V36.0486L114.202 17.6211" stroke="#63666A" stroke-width="3" stroke-linecap="round" stroke-linejoin="round"/>
<path d="M78.501 97.7473C68.2761 97.7473 59.9922 106.031 59.9922 116.256V143.398H97.0098V116.256C97.0098 106.031 88.7259 97.7473 78.501 97.7473Z" stroke="#3F9C35" stroke-width="3" stroke-linecap="round" stroke-linejoin="round"/>
<path d="M78.5 97.7473V143.398" stroke="#3F9C35" stroke-width="3" stroke-linecap="round" stroke-linejoin="round"/>
<path d="M152.535 143.398H4.47266V154.5H152.535V143.398Z" stroke="#63666A" stroke-width="3" stroke-linecap="round" stroke-linejoin="round"/>
</svg>
