<svg width="21" height="21" viewBox="0 0 21 21" fill="none" xmlns="http://www.w3.org/2000/svg">
<g clip-path="url(#clip0_2678_1500)">
<path d="M5.84082 5.18433L13.5189 15.8812H15.1596L7.48145 5.18433H5.84082Z" fill="#63666A"/>
<path d="M10.5 0C4.725 0 0 4.725 0 10.5C0 16.275 4.725 21 10.5 21C16.275 21 21 16.275 21 10.5C21 4.725 16.275 0 10.5 0ZM12.9937 16.6687L9.64687 11.8781L5.44688 16.6687H4.39687L9.1875 11.2219L4.39687 4.33125H8.07188L11.2219 8.85938L15.1594 4.33125H16.2094L11.6156 9.51562L16.6031 16.6031H12.9281L12.9937 16.6687Z" fill="#63666A"/>
</g>
<defs>
<clipPath id="clip0_2678_1500">
<rect width="21" height="21" fill="white"/>
</clipPath>
</defs>
</svg>
